<svg width="64" height="64" viewBox="0 0 64 64" fill="none" xmlns="http://www.w3.org/2000/svg">
<rect width="64" height="64" rx="8" fill="#7D7D7D"/>
<path d="M30.3584 16.4C35.0304 16.4 38.6144 17.296 41.1104 19.088C43.6384 20.848 44.9024 23.488 44.9024 27.008C44.9024 28.928 44.5504 30.576 43.8464 31.952C43.1744 33.296 42.1824 34.4 40.8704 35.264C39.5904 36.096 38.0224 36.704 36.1664 37.088C34.3104 37.472 32.2144 37.664 29.8784 37.664H26.1824V50H21.5264V17.216C22.8384 16.896 24.2944 16.688 25.8944 16.592C27.5264 16.464 29.0144 16.4 30.3584 16.4ZM30.7424 20.48C28.7584 20.48 27.2384 20.528 26.1824 20.624V33.68H29.6864C31.2864 33.68 32.7264 33.584 34.0064 33.392C35.2864 33.168 36.3584 32.816 37.2224 32.336C38.1184 31.824 38.8064 31.136 39.2864 30.272C39.7664 29.408 40.0064 28.304 40.0064 26.96C40.0064 25.68 39.7504 24.624 39.2384 23.792C38.7584 22.96 38.0864 22.304 37.2224 21.824C36.3904 21.312 35.4144 20.96 34.2944 20.768C33.1744 20.576 31.9904 20.48 30.7424 20.48Z" fill="white"/>
</svg>